<?xml version="1.0" encoding="UTF-8" standalone="no"?>
<!DOCTYPE svg PUBLIC "-//W3C//DTD SVG 1.1//EN"
 "http://www.w3.org/Graphics/SVG/1.1/DTD/svg11.dtd">
<!-- Generated by graphviz version 2.42.3 (0)
 -->
<!-- Title: G Pages: 1 -->
<svg width="914pt" height="638pt"
 viewBox="0.00 0.00 914.00 638.00" xmlns="http://www.w3.org/2000/svg" xmlns:xlink="http://www.w3.org/1999/xlink">
<g id="graph0" class="graph" transform="scale(1 1) rotate(0) translate(4 634)">
<title>G</title>
<polygon fill="white" stroke="transparent" points="-4,4 -4,-634 910,-634 910,4 -4,4"/>
<g id="clust1" class="cluster">
<title>cluster_root</title>
<g id="a_clust1"><a xlink:title="eventq_index=0&#10;full_system=false&#10;sim_quantum=0&#10;time_sync_enable=false&#10;time_sync_period=100000000000&#10;time_sync_spin_threshold=100000000">
<path fill="#bab6ae" stroke="#000000" d="M20,-8C20,-8 886,-8 886,-8 892,-8 898,-14 898,-20 898,-20 898,-610 898,-610 898,-616 892,-622 886,-622 886,-622 20,-622 20,-622 14,-622 8,-616 8,-610 8,-610 8,-20 8,-20 8,-14 14,-8 20,-8"/>
<text text-anchor="middle" x="453" y="-606.8" font-family="Arial" font-size="14.00" fill="#000000">root </text>
<text text-anchor="middle" x="453" y="-591.8" font-family="Arial" font-size="14.00" fill="#000000">: Root</text>
</a>
</g>
</g>
<g id="clust2" class="cluster">
<title>cluster_system</title>
<g id="a_clust2"><a xlink:title="boot_osflags=a&#10;cache_line_size=64&#10;eventq_index=0&#10;exit_on_work_items=false&#10;init_param=0&#10;kernel=&#10;kernel_addr_check=true&#10;kernel_extras=&#10;kernel_extras_addrs=&#10;&#10;oad_addr_mask=18446744073709551615&#10;&#10;oad_offset=0&#10;mem_mode=timing&#10;mem_ranges=0:536870912&#10;memories=system.mem_ctrls&#10;mmap_using_noreserve=false&#10;multi_thread=false&#10;&#10;um_work_ids=16&#10;&#13;eadfile=&#10;&#13;edirect_paths=system.redirect_paths0 system.redirect_paths1 system.redirect_paths2&#10;symbolfile=&#10;thermal_components=&#10;thermal_model=Null&#10;work_begin_ckpt_count=0&#10;work_begin_cpu_id_exit=&#45;1&#10;work_begin_exit_count=0&#10;work_cpus_ckpt_count=0&#10;work_end_ckpt_count=0&#10;work_end_exit_count=0&#10;work_item_id=&#45;1">
<path fill="#e4e7eb" stroke="#000000" d="M28,-16C28,-16 878,-16 878,-16 884,-16 890,-22 890,-28 890,-28 890,-564 890,-564 890,-570 884,-576 878,-576 878,-576 28,-576 28,-576 22,-576 16,-570 16,-564 16,-564 16,-28 16,-28 16,-22 22,-16 28,-16"/>
<text text-anchor="middle" x="453" y="-560.8" font-family="Arial" font-size="14.00" fill="#000000">system </text>
<text text-anchor="middle" x="453" y="-545.8" font-family="Arial" font-size="14.00" fill="#000000">: System</text>
</a>
</g>
</g>
<g id="clust3" class="cluster">
<title>cluster_system_membus</title>
<g id="a_clust3"><a xlink:title="clk_domain=system.clk_domain&#10;default_p_state=UNDEFINED&#10;eventq_index=0&#10;forward_latency=4&#10;frontend_latency=3&#10;max_outstanding_snoops=512&#10;max_routing_table_size=512&#10;p_state_clk_gate_bins=20&#10;p_state_clk_gate_max=1000000000000&#10;p_state_clk_gate_min=1000&#10;point_of_coherency=true&#10;point_of_unification=true&#10;power_model=&#10;&#13;esponse_latency=2&#10;snoop_filter=system.membus.snoop_filter&#10;snoop_response_latency=4&#10;system=system&#10;use_default_range=false&#10;width=16">
<path fill="#6f798c" stroke="#000000" d="M99,-354C99,-354 223,-354 223,-354 229,-354 235,-360 235,-366 235,-366 235,-433 235,-433 235,-439 229,-445 223,-445 223,-445 99,-445 99,-445 93,-445 87,-439 87,-433 87,-433 87,-366 87,-366 87,-360 93,-354 99,-354"/>
<text text-anchor="middle" x="161" y="-429.8" font-family="Arial" font-size="14.00" fill="#000000">membus </text>
<text text-anchor="middle" x="161" y="-414.8" font-family="Arial" font-size="14.00" fill="#000000">: SystemXBar</text>
</a>
</g>
</g>
<g id="clust8" class="cluster">
<title>cluster_system_tol2bus</title>
<g id="a_clust8"><a xlink:title="clk_domain=system.cpu_clk_domain&#10;default_p_state=UNDEFINED&#10;eventq_index=0&#10;forward_latency=0&#10;frontend_latency=1&#10;max_outstanding_snoops=512&#10;max_routing_table_size=512&#10;p_state_clk_gate_bins=20&#10;p_state_clk_gate_max=1000000000000&#10;p_state_clk_gate_min=1000&#10;point_of_coherency=false&#10;point_of_unification=true&#10;power_model=&#10;&#13;esponse_latency=1&#10;snoop_filter=system.tol2bus.snoop_filter&#10;snoop_response_latency=1&#10;system=system&#10;use_default_range=false&#10;width=32">
<path fill="#6f798c" stroke="#000000" d="M681,-354C681,-354 805,-354 805,-354 811,-354 817,-360 817,-366 817,-366 817,-433 817,-433 817,-439 811,-445 805,-445 805,-445 681,-445 681,-445 675,-445 669,-439 669,-433 669,-433 669,-366 669,-366 669,-360 675,-354 681,-354"/>
<text text-anchor="middle" x="743" y="-429.8" font-family="Arial" font-size="14.00" fill="#000000">tol2bus </text>
<text text-anchor="middle" x="743" y="-414.8" font-family="Arial" font-size="14.00" fill="#000000">: L2XBar</text>
</a>
</g>
</g>
<g id="clust12" class="cluster">
<title>cluster_system_l2</title>
<g id="a_clust12"><a xlink:title="addr_ranges=0:18446744073709551615&#10;assoc=8&#10;clk_domain=system.cpu_clk_domain&#10;clusivity=mostly_incl&#10;compressor=Null&#10;data_latency=20&#10;default_p_state=UNDEFINED&#10;demand_mshr_reserve=1&#10;eventq_index=0&#10;is_read_only=false&#10;max_miss_count=0&#10;mshrs=20&#10;p_state_clk_gate_bins=20&#10;p_state_clk_gate_max=1000000000000&#10;p_state_clk_gate_min=1000&#10;power_model=&#10;prefetch_on_access=false&#10;prefetcher=Null&#10;&#13;eplacement_policy=system.l2.replacement_policy&#10;&#13;esponse_latency=20&#10;sequential_access=false&#10;size=2097152&#10;system=system&#10;tag_latency=20&#10;tags=system.l2.tags&#10;tgts_per_mshr=12&#10;warmup_percentage=0&#10;write_allocator=Null&#10;write_buffers=8&#10;writeback_clean=false">
<path fill="#bab6ae" stroke="#000000" d="M172,-163C172,-163 334,-163 334,-163 340,-163 346,-169 346,-175 346,-175 346,-242 346,-242 346,-248 340,-254 334,-254 334,-254 172,-254 172,-254 166,-254 160,-248 160,-242 160,-242 160,-175 160,-175 160,-169 166,-163 172,-163"/>
<text text-anchor="middle" x="253" y="-238.8" font-family="Arial" font-size="14.00" fill="#000000">l2 </text>
<text text-anchor="middle" x="253" y="-223.8" font-family="Arial" font-size="14.00" fill="#000000">: L2Cache</text>
</a>
</g>
</g>
<g id="clust17" class="cluster">
<title>cluster_system_mem_ctrls</title>
<g id="a_clust17"><a xlink:title="IDD0=0.055&#10;IDD02=0.0&#10;IDD2N=0.032&#10;IDD2N2=0.0&#10;IDD2P0=0.0&#10;IDD2P02=0.0&#10;IDD2P1=0.032&#10;IDD2P12=0.0&#10;IDD3N=0.038&#10;IDD3N2=0.0&#10;IDD3P0=0.0&#10;IDD3P02=0.0&#10;IDD3P1=0.038&#10;IDD3P12=0.0&#10;IDD4R=0.157&#10;IDD4R2=0.0&#10;IDD4W=0.125&#10;IDD4W2=0.0&#10;IDD5=0.235&#10;IDD52=0.0&#10;IDD6=0.02&#10;IDD62=0.0&#10;VDD=1.5&#10;VDD2=0.0&#10;activation_limit=4&#10;addr_mapping=RoRaBaCoCh&#10;bank_groups_per_rank=0&#10;banks_per_rank=8&#10;burst_length=8&#10;clk_domain=system.clk_domain&#10;conf_table_reported=true&#10;default_p_state=UNDEFINED&#10;device_bus_width=8&#10;device_rowbuffer_size=1024&#10;device_size=536870912&#10;devices_per_rank=8&#10;dll=true&#10;enable_dram_powerdown=false&#10;eventq_index=0&#10;in_addr_map=true&#10;kvm_map=true&#10;max_accesses_per_row=16&#10;mem_sched_policy=frfcfs&#10;min_writes_per_switch=16&#10;&#10;ull=false&#10;p_state_clk_gate_bins=20&#10;p_state_clk_gate_max=1000000000000&#10;p_state_clk_gate_min=1000&#10;page_policy=open_adaptive&#10;power_model=&#10;qos_masters= &#160;&#160;&#160;&#160;&#160;&#160;&#160;&#160;&#160;&#160;&#160;&#160;&#160;&#160;&#10;qos_policy=Null&#10;qos_priorities=1&#10;qos_priority_escalation=false&#10;qos_q_policy=fifo&#10;qos_syncro_scheduler=false&#10;qos_turnaround_policy=Null&#10;&#13;ange=0:536870912&#10;&#13;anks_per_channel=2&#10;&#13;ead_buffer_size=32&#10;static_backend_latency=10000&#10;static_frontend_latency=10000&#10;tBURST=5000&#10;tCCD_L=0&#10;tCCD_L_WR=0&#10;tCK=1250&#10;tCL=13750&#10;tCS=2500&#10;tRAS=35000&#10;tRCD=13750&#10;tREFI=7800000&#10;tRFC=260000&#10;tRP=13750&#10;tRRD=6000&#10;tRRD_L=0&#10;tRTP=7500&#10;tRTW=2500&#10;tWR=15000&#10;tWTR=7500&#10;tXAW=30000&#10;tXP=6000&#10;tXPDLL=0&#10;tXS=270000&#10;tXSDLL=0&#10;write_buffer_size=64&#10;write_high_thresh_perc=85&#10;write_low_thresh_perc=50">
<path fill="#5e5958" stroke="#000000" d="M36,-163C36,-163 140,-163 140,-163 146,-163 152,-169 152,-175 152,-175 152,-242 152,-242 152,-248 146,-254 140,-254 140,-254 36,-254 36,-254 30,-254 24,-248 24,-242 24,-242 24,-175 24,-175 24,-169 30,-163 36,-163"/>
<text text-anchor="middle" x="88" y="-238.8" font-family="Arial" font-size="14.00" fill="#000000">mem_ctrls </text>
<text text-anchor="middle" x="88" y="-223.8" font-family="Arial" font-size="14.00" fill="#000000">: DDR3_1600_8x8</text>
</a>
</g>
</g>
<g id="clust20" class="cluster">
<title>cluster_system_cpu</title>
<g id="a_clust20"><a xlink:title="branchPred=system.cpu.branchPred&#10;checker=Null&#10;clk_domain=system.cpu_clk_domain&#10;cpu_id=0&#10;decodeCycleInput=true&#10;decodeInputBufferSize=3&#10;decodeInputWidth=2&#10;decodeToExecuteForwardDelay=1&#10;default_p_state=UNDEFINED&#10;do_checkpoint_insts=true&#10;do_quiesce=true&#10;do_statistics_insts=true&#10;dtb=system.cpu.dtb&#10;enableIdling=true&#10;eventq_index=0&#10;executeAllowEarlyMemoryIssue=true&#10;executeBranchDelay=1&#10;executeCommitLimit=2&#10;executeCycleInput=true&#10;executeFuncUnits=system.cpu.executeFuncUnits&#10;executeInputBufferSize=7&#10;executeInputWidth=2&#10;executeIssueLimit=2&#10;executeLSQMaxStoreBufferStoresPerCycle=2&#10;executeLSQRequestsQueueSize=1&#10;executeLSQStoreBufferSize=5&#10;executeLSQTransfersQueueSize=2&#10;executeMaxAccessesInMemory=2&#10;executeMemoryCommitLimit=1&#10;executeMemoryIssueLimit=1&#10;executeMemoryWidth=0&#10;executeSetTraceTimeOnCommit=true&#10;executeSetTraceTimeOnIssue=false&#10;fetch1FetchLimit=1&#10;fetch1LineSnapWidth=0&#10;fetch1LineWidth=0&#10;fetch1ToFetch2BackwardDelay=1&#10;fetch1ToFetch2ForwardDelay=1&#10;fetch2CycleInput=true&#10;fetch2InputBufferSize=2&#10;fetch2ToDecodeForwardDelay=1&#10;function_trace=false&#10;function_trace_start=0&#10;interrupts=system.cpu.interrupts&#10;isa=system.cpu.isa&#10;itb=system.cpu.itb&#10;max_insts_all_threads=0&#10;max_insts_any_thread=100000000&#10;&#10;umThreads=1&#10;p_state_clk_gate_bins=20&#10;p_state_clk_gate_max=1000000000000&#10;p_state_clk_gate_min=1000&#10;power_gating_on_idle=false&#10;power_model=&#10;profile=0&#10;progress_interval=0&#10;pwr_gating_latency=300&#10;simpoint_start_insts=&#10;socket_id=0&#10;switched_out=false&#10;syscallRetryLatency=10000&#10;system=system&#10;threadPolicy=RoundRobin&#10;tracer=system.cpu.tracer&#10;wait_for_remote_gdb=false&#10;workload=system.cpu.workload">
<path fill="#bbc6d9" stroke="#000000" d="M366,-24C366,-24 848,-24 848,-24 854,-24 860,-30 860,-36 860,-36 860,-334 860,-334 860,-340 854,-346 848,-346 848,-346 366,-346 366,-346 360,-346 354,-340 354,-334 354,-334 354,-36 354,-36 354,-30 360,-24 366,-24"/>
<text text-anchor="middle" x="607" y="-330.8" font-family="Arial" font-size="14.00" fill="#000000">cpu </text>
<text text-anchor="middle" x="607" y="-315.8" font-family="Arial" font-size="14.00" fill="#000000">: MinorCPU</text>
</a>
</g>
</g>
<g id="clust22" class="cluster">
<title>cluster_system_cpu_dtb</title>
<g id="a_clust22"><a xlink:title="eventq_index=0&#10;is_stage2=false&#10;size=64&#10;sys=system&#10;walker=system.cpu.dtb.walker">
<path fill="#bab6ae" stroke="#000000" d="M725,-155C725,-155 840,-155 840,-155 846,-155 852,-161 852,-167 852,-167 852,-288 852,-288 852,-294 846,-300 840,-300 840,-300 725,-300 725,-300 719,-300 713,-294 713,-288 713,-288 713,-167 713,-167 713,-161 719,-155 725,-155"/>
<text text-anchor="middle" x="782.5" y="-284.8" font-family="Arial" font-size="14.00" fill="#000000">dtb </text>
<text text-anchor="middle" x="782.5" y="-269.8" font-family="Arial" font-size="14.00" fill="#000000">: ArmDTB</text>
</a>
</g>
</g>
<g id="clust23" class="cluster">
<title>cluster_system_cpu_dtb_walker</title>
<g id="a_clust23"><a xlink:title="clk_domain=system.cpu_clk_domain&#10;default_p_state=UNDEFINED&#10;eventq_index=0&#10;is_stage2=false&#10;&#10;um_squash_per_cycle=2&#10;p_state_clk_gate_bins=20&#10;p_state_clk_gate_max=1000000000000&#10;p_state_clk_gate_min=1000&#10;power_model=&#10;sys=system">
<path fill="#9f9c95" stroke="#000000" d="M733,-163C733,-163 832,-163 832,-163 838,-163 844,-169 844,-175 844,-175 844,-242 844,-242 844,-248 838,-254 832,-254 832,-254 733,-254 733,-254 727,-254 721,-248 721,-242 721,-242 721,-175 721,-175 721,-169 727,-163 733,-163"/>
<text text-anchor="middle" x="782.5" y="-238.8" font-family="Arial" font-size="14.00" fill="#000000">walker </text>
<text text-anchor="middle" x="782.5" y="-223.8" font-family="Arial" font-size="14.00" fill="#000000">: ArmTableWalker</text>
</a>
</g>
</g>
<g id="clust110" class="cluster">
<title>cluster_system_cpu_icache</title>
<g id="a_clust110"><a xlink:title="addr_ranges=0:18446744073709551615&#10;assoc=2&#10;clk_domain=system.cpu_clk_domain&#10;clusivity=mostly_incl&#10;compressor=Null&#10;data_latency=2&#10;default_p_state=UNDEFINED&#10;demand_mshr_reserve=1&#10;eventq_index=0&#10;is_read_only=true&#10;max_miss_count=0&#10;mshrs=4&#10;p_state_clk_gate_bins=20&#10;p_state_clk_gate_max=1000000000000&#10;p_state_clk_gate_min=1000&#10;power_model=&#10;prefetch_on_access=false&#10;prefetcher=Null&#10;&#13;eplacement_policy=system.cpu.icache.replacement_policy&#10;&#13;esponse_latency=2&#10;sequential_access=false&#10;size=32768&#10;system=system&#10;tag_latency=2&#10;tags=system.cpu.icache.tags&#10;tgts_per_mshr=20&#10;warmup_percentage=0&#10;write_allocator=Null&#10;write_buffers=8&#10;writeback_clean=true">
<path fill="#bab6ae" stroke="#000000" d="M429,-32C429,-32 591,-32 591,-32 597,-32 603,-38 603,-44 603,-44 603,-111 603,-111 603,-117 597,-123 591,-123 591,-123 429,-123 429,-123 423,-123 417,-117 417,-111 417,-111 417,-44 417,-44 417,-38 423,-32 429,-32"/>
<text text-anchor="middle" x="510" y="-107.8" font-family="Arial" font-size="14.00" fill="#000000">icache </text>
<text text-anchor="middle" x="510" y="-92.8" font-family="Arial" font-size="14.00" fill="#000000">: L1_ICache</text>
</a>
</g>
</g>
<g id="clust114" class="cluster">
<title>cluster_system_cpu_dcache</title>
<g id="a_clust114"><a xlink:title="addr_ranges=0:18446744073709551615&#10;assoc=4&#10;clk_domain=system.cpu_clk_domain&#10;clusivity=mostly_incl&#10;compressor=Null&#10;data_latency=2&#10;default_p_state=UNDEFINED&#10;demand_mshr_reserve=1&#10;eventq_index=0&#10;is_read_only=false&#10;max_miss_count=0&#10;mshrs=4&#10;p_state_clk_gate_bins=20&#10;p_state_clk_gate_max=1000000000000&#10;p_state_clk_gate_min=1000&#10;power_model=&#10;prefetch_on_access=false&#10;prefetcher=Null&#10;&#13;eplacement_policy=system.cpu.dcache.replacement_policy&#10;&#13;esponse_latency=2&#10;sequential_access=false&#10;size=65536&#10;system=system&#10;tag_latency=2&#10;tags=system.cpu.dcache.tags&#10;tgts_per_mshr=20&#10;warmup_percentage=0&#10;write_allocator=Null&#10;write_buffers=8&#10;writeback_clean=false">
<path fill="#bab6ae" stroke="#000000" d="M650,-32C650,-32 812,-32 812,-32 818,-32 824,-38 824,-44 824,-44 824,-111 824,-111 824,-117 818,-123 812,-123 812,-123 650,-123 650,-123 644,-123 638,-117 638,-111 638,-111 638,-44 638,-44 638,-38 644,-32 650,-32"/>
<text text-anchor="middle" x="731" y="-107.8" font-family="Arial" font-size="14.00" fill="#000000">dcache </text>
<text text-anchor="middle" x="731" y="-92.8" font-family="Arial" font-size="14.00" fill="#000000">: L1_DCache</text>
</a>
</g>
</g>
<g id="clust122" class="cluster">
<title>cluster_system_cpu_itb</title>
<g id="a_clust122"><a xlink:title="eventq_index=0&#10;is_stage2=false&#10;size=64&#10;sys=system&#10;walker=system.cpu.itb.walker">
<path fill="#bab6ae" stroke="#000000" d="M578,-155C578,-155 693,-155 693,-155 699,-155 705,-161 705,-167 705,-167 705,-288 705,-288 705,-294 699,-300 693,-300 693,-300 578,-300 578,-300 572,-300 566,-294 566,-288 566,-288 566,-167 566,-167 566,-161 572,-155 578,-155"/>
<text text-anchor="middle" x="635.5" y="-284.8" font-family="Arial" font-size="14.00" fill="#000000">itb </text>
<text text-anchor="middle" x="635.5" y="-269.8" font-family="Arial" font-size="14.00" fill="#000000">: ArmITB</text>
</a>
</g>
</g>
<g id="clust123" class="cluster">
<title>cluster_system_cpu_itb_walker</title>
<g id="a_clust123"><a xlink:title="clk_domain=system.cpu_clk_domain&#10;default_p_state=UNDEFINED&#10;eventq_index=0&#10;is_stage2=false&#10;&#10;um_squash_per_cycle=2&#10;p_state_clk_gate_bins=20&#10;p_state_clk_gate_max=1000000000000&#10;p_state_clk_gate_min=1000&#10;power_model=&#10;sys=system">
<path fill="#9f9c95" stroke="#000000" d="M586,-163C586,-163 685,-163 685,-163 691,-163 697,-169 697,-175 697,-175 697,-242 697,-242 697,-248 691,-254 685,-254 685,-254 586,-254 586,-254 580,-254 574,-248 574,-242 574,-242 574,-175 574,-175 574,-169 580,-163 586,-163"/>
<text text-anchor="middle" x="635.5" y="-238.8" font-family="Arial" font-size="14.00" fill="#000000">walker </text>
<text text-anchor="middle" x="635.5" y="-223.8" font-family="Arial" font-size="14.00" fill="#000000">: ArmTableWalker</text>
</a>
</g>
</g>
<!-- system_system_port -->
<g id="node1" class="node">
<title>system_system_port</title>
<path fill="#b6b8bc" stroke="#000000" d="M166.5,-493.5C166.5,-493.5 233.5,-493.5 233.5,-493.5 239.5,-493.5 245.5,-499.5 245.5,-505.5 245.5,-505.5 245.5,-517.5 245.5,-517.5 245.5,-523.5 239.5,-529.5 233.5,-529.5 233.5,-529.5 166.5,-529.5 166.5,-529.5 160.5,-529.5 154.5,-523.5 154.5,-517.5 154.5,-517.5 154.5,-505.5 154.5,-505.5 154.5,-499.5 160.5,-493.5 166.5,-493.5"/>
<text text-anchor="middle" x="200" y="-507.8" font-family="Arial" font-size="14.00" fill="#000000">system_port</text>
</g>
<!-- system_membus_slave -->
<g id="node3" class="node">
<title>system_membus_slave</title>
<path fill="#586070" stroke="#000000" d="M185,-362.5C185,-362.5 215,-362.5 215,-362.5 221,-362.5 227,-368.5 227,-374.5 227,-374.5 227,-386.5 227,-386.5 227,-392.5 221,-398.5 215,-398.5 215,-398.5 185,-398.5 185,-398.5 179,-398.5 173,-392.5 173,-386.5 173,-386.5 173,-374.5 173,-374.5 173,-368.5 179,-362.5 185,-362.5"/>
<text text-anchor="middle" x="200" y="-376.8" font-family="Arial" font-size="14.00" fill="#000000">slave</text>
</g>
<!-- system_system_port&#45;&gt;system_membus_slave -->
<g id="edge1" class="edge">
<title>system_system_port&#45;&gt;system_membus_slave</title>
<path fill="none" stroke="black" d="M200,-493.37C200,-471.78 200,-434.41 200,-408.85"/>
<polygon fill="black" stroke="black" points="203.5,-408.7 200,-398.7 196.5,-408.7 203.5,-408.7"/>
</g>
<!-- system_membus_master -->
<g id="node2" class="node">
<title>system_membus_master</title>
<path fill="#586070" stroke="#000000" d="M107.5,-362.5C107.5,-362.5 142.5,-362.5 142.5,-362.5 148.5,-362.5 154.5,-368.5 154.5,-374.5 154.5,-374.5 154.5,-386.5 154.5,-386.5 154.5,-392.5 148.5,-398.5 142.5,-398.5 142.5,-398.5 107.5,-398.5 107.5,-398.5 101.5,-398.5 95.5,-392.5 95.5,-386.5 95.5,-386.5 95.5,-374.5 95.5,-374.5 95.5,-368.5 101.5,-362.5 107.5,-362.5"/>
<text text-anchor="middle" x="125" y="-376.8" font-family="Arial" font-size="14.00" fill="#000000">master</text>
</g>
<!-- system_mem_ctrls_port -->
<g id="node8" class="node">
<title>system_mem_ctrls_port</title>
<path fill="#4b4746" stroke="#000000" d="M102,-171.5C102,-171.5 132,-171.5 132,-171.5 138,-171.5 144,-177.5 144,-183.5 144,-183.5 144,-195.5 144,-195.5 144,-201.5 138,-207.5 132,-207.5 132,-207.5 102,-207.5 102,-207.5 96,-207.5 90,-201.5 90,-195.5 90,-195.5 90,-183.5 90,-183.5 90,-177.5 96,-171.5 102,-171.5"/>
<text text-anchor="middle" x="117" y="-185.8" font-family="Arial" font-size="14.00" fill="#000000">port</text>
</g>
<!-- system_membus_master&#45;&gt;system_mem_ctrls_port -->
<g id="edge2" class="edge">
<title>system_membus_master&#45;&gt;system_mem_ctrls_port</title>
<path fill="none" stroke="black" d="M124.28,-362.39C122.88,-329.52 119.83,-257.26 118.15,-217.7"/>
<polygon fill="black" stroke="black" points="121.65,-217.55 117.73,-207.7 114.65,-217.84 121.65,-217.55"/>
</g>
<!-- system_l2_mem_side -->
<g id="node6" class="node">
<title>system_l2_mem_side</title>
<path fill="#94918b" stroke="#000000" d="M180,-171.5C180,-171.5 236,-171.5 236,-171.5 242,-171.5 248,-177.5 248,-183.5 248,-183.5 248,-195.5 248,-195.5 248,-201.5 242,-207.5 236,-207.5 236,-207.5 180,-207.5 180,-207.5 174,-207.5 168,-201.5 168,-195.5 168,-195.5 168,-183.5 168,-183.5 168,-177.5 174,-171.5 180,-171.5"/>
<text text-anchor="middle" x="208" y="-185.8" font-family="Arial" font-size="14.00" fill="#000000">mem_side</text>
</g>
<!-- system_membus_slave&#45;&gt;system_l2_mem_side -->
<g id="edge3" class="edge">
<title>system_membus_slave&#45;&gt;system_l2_mem_side</title>
<path fill="none" stroke="black" d="M201.16,-352.16C202.83,-312.61 205.88,-240.59 207.27,-207.7"/>
<polygon fill="black" stroke="black" points="197.65,-352.26 200.72,-362.39 204.64,-352.55 197.65,-352.26"/>
</g>
<!-- system_tol2bus_master -->
<g id="node4" class="node">
<title>system_tol2bus_master</title>
<path fill="#586070" stroke="#000000" d="M689.5,-362.5C689.5,-362.5 724.5,-362.5 724.5,-362.5 730.5,-362.5 736.5,-368.5 736.5,-374.5 736.5,-374.5 736.5,-386.5 736.5,-386.5 736.5,-392.5 730.5,-398.5 724.5,-398.5 724.5,-398.5 689.5,-398.5 689.5,-398.5 683.5,-398.5 677.5,-392.5 677.5,-386.5 677.5,-386.5 677.5,-374.5 677.5,-374.5 677.5,-368.5 683.5,-362.5 689.5,-362.5"/>
<text text-anchor="middle" x="707" y="-376.8" font-family="Arial" font-size="14.00" fill="#000000">master</text>
</g>
<!-- system_l2_cpu_side -->
<g id="node7" class="node">
<title>system_l2_cpu_side</title>
<path fill="#94918b" stroke="#000000" d="M278.5,-171.5C278.5,-171.5 325.5,-171.5 325.5,-171.5 331.5,-171.5 337.5,-177.5 337.5,-183.5 337.5,-183.5 337.5,-195.5 337.5,-195.5 337.5,-201.5 331.5,-207.5 325.5,-207.5 325.5,-207.5 278.5,-207.5 278.5,-207.5 272.5,-207.5 266.5,-201.5 266.5,-195.5 266.5,-195.5 266.5,-183.5 266.5,-183.5 266.5,-177.5 272.5,-171.5 278.5,-171.5"/>
<text text-anchor="middle" x="302" y="-185.8" font-family="Arial" font-size="14.00" fill="#000000">cpu_side</text>
</g>
<!-- system_tol2bus_master&#45;&gt;system_l2_cpu_side -->
<g id="edge4" class="edge">
<title>system_tol2bus_master&#45;&gt;system_l2_cpu_side</title>
<path fill="none" stroke="black" d="M677.29,-378.58C596.15,-375.82 375.18,-366.47 350,-346 311.55,-314.75 303.26,-253.35 301.84,-217.77"/>
<polygon fill="black" stroke="black" points="305.34,-217.53 301.6,-207.61 298.34,-217.7 305.34,-217.53"/>
</g>
<!-- system_tol2bus_slave -->
<g id="node5" class="node">
<title>system_tol2bus_slave</title>
<path fill="#586070" stroke="#000000" d="M767,-362.5C767,-362.5 797,-362.5 797,-362.5 803,-362.5 809,-368.5 809,-374.5 809,-374.5 809,-386.5 809,-386.5 809,-392.5 803,-398.5 797,-398.5 797,-398.5 767,-398.5 767,-398.5 761,-398.5 755,-392.5 755,-386.5 755,-386.5 755,-374.5 755,-374.5 755,-368.5 761,-362.5 767,-362.5"/>
<text text-anchor="middle" x="782" y="-376.8" font-family="Arial" font-size="14.00" fill="#000000">slave</text>
</g>
<!-- system_cpu_dtb_walker_port -->
<g id="node11" class="node">
<title>system_cpu_dtb_walker_port</title>
<path fill="#7f7c77" stroke="#000000" d="M767,-171.5C767,-171.5 797,-171.5 797,-171.5 803,-171.5 809,-177.5 809,-183.5 809,-183.5 809,-195.5 809,-195.5 809,-201.5 803,-207.5 797,-207.5 797,-207.5 767,-207.5 767,-207.5 761,-207.5 755,-201.5 755,-195.5 755,-195.5 755,-183.5 755,-183.5 755,-177.5 761,-171.5 767,-171.5"/>
<text text-anchor="middle" x="782" y="-185.8" font-family="Arial" font-size="14.00" fill="#000000">port</text>
</g>
<!-- system_tol2bus_slave&#45;&gt;system_cpu_dtb_walker_port -->
<g id="edge8" class="edge">
<title>system_tol2bus_slave&#45;&gt;system_cpu_dtb_walker_port</title>
<path fill="none" stroke="black" d="M782,-352.16C782,-312.61 782,-240.59 782,-207.7"/>
<polygon fill="black" stroke="black" points="778.5,-352.39 782,-362.39 785.5,-352.39 778.5,-352.39"/>
</g>
<!-- system_cpu_icache_mem_side -->
<g id="node12" class="node">
<title>system_cpu_icache_mem_side</title>
<path fill="#94918b" stroke="#000000" d="M527,-40.5C527,-40.5 583,-40.5 583,-40.5 589,-40.5 595,-46.5 595,-52.5 595,-52.5 595,-64.5 595,-64.5 595,-70.5 589,-76.5 583,-76.5 583,-76.5 527,-76.5 527,-76.5 521,-76.5 515,-70.5 515,-64.5 515,-64.5 515,-52.5 515,-52.5 515,-46.5 521,-40.5 527,-40.5"/>
<text text-anchor="middle" x="555" y="-54.8" font-family="Arial" font-size="14.00" fill="#000000">mem_side</text>
</g>
<!-- system_tol2bus_slave&#45;&gt;system_cpu_icache_mem_side -->
<g id="edge5" class="edge">
<title>system_tol2bus_slave&#45;&gt;system_cpu_icache_mem_side</title>
<path fill="none" stroke="black" d="M818.71,-369.3C830.1,-364.22 841.38,-356.78 848,-346 859.1,-327.91 861.85,-171.08 848,-155 816.61,-118.57 678.05,-142.29 634,-123 609.18,-112.13 585.63,-91.36 570.81,-76.53"/>
<polygon fill="black" stroke="black" points="817.25,-366.12 809.22,-373.03 819.81,-372.63 817.25,-366.12"/>
</g>
<!-- system_cpu_dcache_mem_side -->
<g id="node14" class="node">
<title>system_cpu_dcache_mem_side</title>
<path fill="#94918b" stroke="#000000" d="M748,-40.5C748,-40.5 804,-40.5 804,-40.5 810,-40.5 816,-46.5 816,-52.5 816,-52.5 816,-64.5 816,-64.5 816,-70.5 810,-76.5 804,-76.5 804,-76.5 748,-76.5 748,-76.5 742,-76.5 736,-70.5 736,-64.5 736,-64.5 736,-52.5 736,-52.5 736,-46.5 742,-40.5 748,-40.5"/>
<text text-anchor="middle" x="776" y="-54.8" font-family="Arial" font-size="14.00" fill="#000000">mem_side</text>
</g>
<!-- system_tol2bus_slave&#45;&gt;system_cpu_dcache_mem_side -->
<g id="edge6" class="edge">
<title>system_tol2bus_slave&#45;&gt;system_cpu_dcache_mem_side</title>
<path fill="none" stroke="black" d="M819.18,-374.33C836.46,-369.87 855.47,-361.54 866,-346 913.63,-275.73 897.32,-233.9 866,-155 852.89,-121.97 822.34,-93.73 800.47,-76.71"/>
<polygon fill="black" stroke="black" points="818.29,-370.95 809.29,-376.54 819.81,-377.78 818.29,-370.95"/>
</g>
<!-- system_cpu_itb_walker_port -->
<g id="node16" class="node">
<title>system_cpu_itb_walker_port</title>
<path fill="#7f7c77" stroke="#000000" d="M647,-171.5C647,-171.5 677,-171.5 677,-171.5 683,-171.5 689,-177.5 689,-183.5 689,-183.5 689,-195.5 689,-195.5 689,-201.5 683,-207.5 677,-207.5 677,-207.5 647,-207.5 647,-207.5 641,-207.5 635,-201.5 635,-195.5 635,-195.5 635,-183.5 635,-183.5 635,-177.5 641,-171.5 647,-171.5"/>
<text text-anchor="middle" x="662" y="-185.8" font-family="Arial" font-size="14.00" fill="#000000">port</text>
</g>
<!-- system_tol2bus_slave&#45;&gt;system_cpu_itb_walker_port -->
<g id="edge7" class="edge">
<title>system_tol2bus_slave&#45;&gt;system_cpu_itb_walker_port</title>
<path fill="none" stroke="black" d="M751.45,-356.83C749.64,-355.81 747.82,-354.86 746,-354 733.92,-348.27 726.78,-355.11 717,-346 676.77,-308.52 665.95,-239.79 663.05,-207.77"/>
<polygon fill="black" stroke="black" points="749.93,-360.01 760.27,-362.31 753.63,-354.06 749.93,-360.01"/>
</g>
<!-- system_cpu_icache_port -->
<g id="node9" class="node">
<title>system_cpu_icache_port</title>
<path fill="#959ead" stroke="#000000" d="M374,-171.5C374,-171.5 436,-171.5 436,-171.5 442,-171.5 448,-177.5 448,-183.5 448,-183.5 448,-195.5 448,-195.5 448,-201.5 442,-207.5 436,-207.5 436,-207.5 374,-207.5 374,-207.5 368,-207.5 362,-201.5 362,-195.5 362,-195.5 362,-183.5 362,-183.5 362,-177.5 368,-171.5 374,-171.5"/>
<text text-anchor="middle" x="405" y="-185.8" font-family="Arial" font-size="14.00" fill="#000000">icache_port</text>
</g>
<!-- system_cpu_icache_cpu_side -->
<g id="node13" class="node">
<title>system_cpu_icache_cpu_side</title>
<path fill="#94918b" stroke="#000000" d="M437.5,-40.5C437.5,-40.5 484.5,-40.5 484.5,-40.5 490.5,-40.5 496.5,-46.5 496.5,-52.5 496.5,-52.5 496.5,-64.5 496.5,-64.5 496.5,-70.5 490.5,-76.5 484.5,-76.5 484.5,-76.5 437.5,-76.5 437.5,-76.5 431.5,-76.5 425.5,-70.5 425.5,-64.5 425.5,-64.5 425.5,-52.5 425.5,-52.5 425.5,-46.5 431.5,-40.5 437.5,-40.5"/>
<text text-anchor="middle" x="461" y="-54.8" font-family="Arial" font-size="14.00" fill="#000000">cpu_side</text>
</g>
<!-- system_cpu_icache_port&#45;&gt;system_cpu_icache_cpu_side -->
<g id="edge9" class="edge">
<title>system_cpu_icache_port&#45;&gt;system_cpu_icache_cpu_side</title>
<path fill="none" stroke="black" d="M412.44,-171.37C421.89,-149.59 438.32,-111.74 449.42,-86.17"/>
<polygon fill="black" stroke="black" points="452.76,-87.27 453.53,-76.7 446.34,-84.48 452.76,-87.27"/>
</g>
<!-- system_cpu_dcache_port -->
<g id="node10" class="node">
<title>system_cpu_dcache_port</title>
<path fill="#959ead" stroke="#000000" d="M478.5,-171.5C478.5,-171.5 545.5,-171.5 545.5,-171.5 551.5,-171.5 557.5,-177.5 557.5,-183.5 557.5,-183.5 557.5,-195.5 557.5,-195.5 557.5,-201.5 551.5,-207.5 545.5,-207.5 545.5,-207.5 478.5,-207.5 478.5,-207.5 472.5,-207.5 466.5,-201.5 466.5,-195.5 466.5,-195.5 466.5,-183.5 466.5,-183.5 466.5,-177.5 472.5,-171.5 478.5,-171.5"/>
<text text-anchor="middle" x="512" y="-185.8" font-family="Arial" font-size="14.00" fill="#000000">dcache_port</text>
</g>
<!-- system_cpu_dcache_cpu_side -->
<g id="node15" class="node">
<title>system_cpu_dcache_cpu_side</title>
<path fill="#94918b" stroke="#000000" d="M658.5,-40.5C658.5,-40.5 705.5,-40.5 705.5,-40.5 711.5,-40.5 717.5,-46.5 717.5,-52.5 717.5,-52.5 717.5,-64.5 717.5,-64.5 717.5,-70.5 711.5,-76.5 705.5,-76.5 705.5,-76.5 658.5,-76.5 658.5,-76.5 652.5,-76.5 646.5,-70.5 646.5,-64.5 646.5,-64.5 646.5,-52.5 646.5,-52.5 646.5,-46.5 652.5,-40.5 658.5,-40.5"/>
<text text-anchor="middle" x="682" y="-54.8" font-family="Arial" font-size="14.00" fill="#000000">cpu_side</text>
</g>
<!-- system_cpu_dcache_port&#45;&gt;system_cpu_dcache_cpu_side -->
<g id="edge10" class="edge">
<title>system_cpu_dcache_port&#45;&gt;system_cpu_dcache_cpu_side</title>
<path fill="none" stroke="black" d="M538.3,-171.39C557.65,-158.55 584.41,-140.29 607,-123 623.31,-110.52 640.87,-95.74 654.89,-83.58"/>
<polygon fill="black" stroke="black" points="657.47,-85.97 662.7,-76.76 652.86,-80.7 657.47,-85.97"/>
</g>
</g>
</svg>
